<svg width="16" height="16" viewBox="0 0 16 16" fill="none" xmlns="http://www.w3.org/2000/svg">
<path d="M14.6667 11.3333C14.6667 11.687 14.5262 12.0261 14.2762 12.2761C14.0261 12.5262 13.687 12.6667 13.3333 12.6667H4.55201C4.19842 12.6667 3.85933 12.8073 3.60934 13.0573L2.14134 14.5253C2.07515 14.5915 1.99081 14.6366 1.899 14.6548C1.80719 14.6731 1.71203 14.6637 1.62555 14.6279C1.53907 14.5921 1.46515 14.5314 1.41313 14.4536C1.36112 14.3758 1.33336 14.2843 1.33334 14.1907V3.33333C1.33334 2.97971 1.47382 2.64057 1.72387 2.39052C1.97392 2.14048 2.31305 2 2.66668 2H13.3333C13.687 2 14.0261 2.14048 14.2762 2.39052C14.5262 2.64057 14.6667 2.97971 14.6667 3.33333V11.3333Z" stroke="#323232" stroke-width="1.33333" stroke-linecap="round" stroke-linejoin="round"/>
<path d="M4.66666 7.33334H11.3333" stroke="#323232" stroke-width="1.33333" stroke-linecap="round" stroke-linejoin="round"/>
<path d="M4.66666 10H8.66666" stroke="#323232" stroke-width="1.33333" stroke-linecap="round" stroke-linejoin="round"/>
<path d="M4.66666 4.66666H9.99999" stroke="#323232" stroke-width="1.33333" stroke-linecap="round" stroke-linejoin="round"/>
</svg>
